<svg width="200" height="98" viewBox="0 0 200 98" fill="none" xmlns="http://www.w3.org/2000/svg">
    <circle cx="49" cy="49" r="44" fill="#0068E1" />
    <rect x="5" y="5" width="88" height="88" rx="44" fill="url(#paint0_linear_1380_76)"
        fill-opacity="0.8" />
    <path
        d="M44.8975 70.158H39.2055C34.973 70.158 32.8567 70.158 31.3017 69.3099C29.9356 68.5649 28.8592 67.3828 28.2449 65.9532C27.5457 64.3257 27.7432 62.2187 28.1383 58.0047L29.5277 43.1836C29.8613 39.6251 30.0282 37.8459 30.8284 36.5007C31.5332 35.316 32.5745 34.3677 33.8199 33.7766C35.2339 33.1054 37.0209 33.1054 40.595 33.1054L57.4028 33.1054C60.9769 33.1054 62.7639 33.1054 64.1779 33.7766C65.4232 34.3677 66.4646 35.316 67.1694 36.5007C67.9696 37.8459 68.1364 39.6251 68.47 43.1836L68.8278 47.0001M58.262 40.0528V33.1054C58.262 27.9895 54.1148 23.8422 48.9989 23.8422C43.883 23.8422 39.7357 27.9895 39.7357 33.1054V40.0527"
        stroke="white" stroke-width="4.125" stroke-linecap="round" stroke-linejoin="round" />
    <path
        d="M69.2288 59.8527C70.1941 59.333 70.6767 59.0731 70.8027 58.7563C70.912 58.4813 70.8849 58.1708 70.7295 57.9189C70.5506 57.6288 70.0302 57.4565 68.9895 57.1119L53.5873 52.0122C52.6759 51.7104 52.2202 51.5595 51.9167 51.668C51.6526 51.7625 51.4448 51.9703 51.3503 52.2344C51.2419 52.5379 51.3927 52.9936 51.6945 53.905L56.7942 69.3072C57.1388 70.348 57.3111 70.8683 57.6012 71.0473C57.8531 71.2026 58.1636 71.2298 58.4386 71.1204C58.7553 70.9945 59.0152 70.5118 59.535 69.5465L62.7148 63.6412C62.794 63.4941 62.8336 63.4206 62.8845 63.3562C62.9297 63.299 62.9814 63.2474 63.0385 63.2022C63.1029 63.1513 63.1764 63.1117 63.3235 63.0325L69.2288 59.8527Z"
        stroke="white" stroke-width="4.125" stroke-linecap="round" stroke-linejoin="round" />
    <path
        d="M65.3485 82.5535C65.3523 82.9145 65.3747 83.2756 65.4233 83.6321C65.427 83.6458 65.427 83.6595 65.4308 83.6732C65.4682 83.92 65.5729 84.0982 65.7523 84.2216C65.8719 84.3039 65.9953 84.377 66.1336 84.4044C66.343 84.4501 66.5561 84.5004 66.7654 84.5507C66.8253 84.5644 66.8664 84.6101 66.8739 84.6741C66.8813 84.7335 66.8514 84.7929 66.7991 84.8249C66.7692 84.8386 66.7355 84.8477 66.7056 84.8615C66.5299 84.9163 66.3542 84.9803 66.1897 85.0808C65.9243 85.2408 65.7299 85.4876 65.6177 85.8212C65.4869 86.2051 65.3971 86.6027 65.3523 87.014C65.3411 87.1329 65.3261 87.2517 65.3149 87.3705C65.3074 87.4482 65.2738 87.4939 65.2214 87.4985C65.1691 87.5076 65.128 87.4756 65.1018 87.4071C65.0906 87.3751 65.0831 87.3431 65.0756 87.3111C64.9934 86.9775 64.8775 86.6621 64.7317 86.3605C64.698 86.2965 64.6644 86.2279 64.6233 86.1731C64.4363 85.9309 64.2345 85.7069 64.0027 85.5287C63.812 85.3825 63.6026 85.3002 63.3858 85.2408C63.2101 85.1951 63.0344 85.1539 62.8587 85.1128C62.7914 85.0991 62.754 85.0534 62.7503 84.9894C62.7465 84.9209 62.7839 84.866 62.8512 84.8477C62.8699 84.8432 62.8923 84.8386 62.9148 84.8386C63.0194 84.8523 63.1166 84.8158 63.2138 84.7975C63.412 84.7563 63.6026 84.6832 63.7933 84.6101C63.8905 84.5735 63.984 84.5278 64.0812 84.4867C64.3952 84.3496 64.5859 84.0708 64.7055 83.7052C64.7354 83.6092 64.7579 83.5087 64.7915 83.4173C64.8401 83.2802 64.8924 83.143 64.941 83.0059C64.9709 82.9282 65.0046 82.846 65.0233 82.7637C65.0681 82.5672 65.1093 82.3707 65.1541 82.1696C65.1616 82.1376 65.1728 82.1056 65.184 82.069C65.199 82.0233 65.2252 81.9959 65.2663 82.0005C65.3112 82.0051 65.3373 82.0416 65.3448 82.0919C65.3485 82.133 65.3485 82.1696 65.3485 82.2107C65.3485 82.325 65.3485 82.4392 65.3485 82.5535Z"
        fill="white" />
    <path
        d="M30.1074 23.1517C30.1099 23.3323 30.1248 23.5128 30.1572 23.691C30.1597 23.6979 30.1597 23.7047 30.1622 23.7116C30.1871 23.835 30.2569 23.9241 30.3765 23.9858C30.4563 24.0269 30.5385 24.0635 30.6308 24.0772C30.7703 24.1001 30.9124 24.1252 31.052 24.1503C31.0918 24.1572 31.1193 24.18 31.1242 24.212C31.1292 24.2417 31.1093 24.2714 31.0744 24.2874C31.0545 24.2943 31.032 24.2989 31.0121 24.3057C30.8949 24.3331 30.7778 24.3651 30.6681 24.4154C30.4912 24.4954 30.3616 24.6188 30.2868 24.7856C30.1996 24.9775 30.1398 25.1764 30.1099 25.382C30.1024 25.4414 30.0924 25.5008 30.0849 25.5603C30.0799 25.5991 30.0575 25.622 30.0226 25.6242C29.9877 25.6288 29.9603 25.6128 29.9429 25.5785C29.9354 25.5625 29.9304 25.5465 29.9254 25.5305C29.8706 25.3637 29.7933 25.2061 29.6961 25.0552C29.6737 25.0233 29.6513 24.989 29.6238 24.9616C29.4992 24.8404 29.3646 24.7285 29.2101 24.6394C29.083 24.5662 28.9434 24.5251 28.7989 24.4954C28.6817 24.4725 28.5646 24.452 28.4474 24.4314C28.4026 24.4246 28.3777 24.4017 28.3752 24.3697C28.3727 24.3354 28.3976 24.308 28.4425 24.2989C28.4549 24.2966 28.4699 24.2943 28.4848 24.2943C28.5546 24.3012 28.6194 24.2829 28.6842 24.2737C28.8163 24.2532 28.9434 24.2166 29.0705 24.18C29.1353 24.1618 29.1976 24.1389 29.2625 24.1183C29.4718 24.0498 29.5989 23.9104 29.6787 23.7276C29.6986 23.6796 29.7136 23.6293 29.736 23.5836C29.7684 23.5151 29.8033 23.4465 29.8357 23.378C29.8556 23.3391 29.8781 23.298 29.8905 23.2569C29.9204 23.1586 29.9478 23.0603 29.9778 22.9598C29.9827 22.9438 29.9902 22.9278 29.9977 22.9095C30.0077 22.8867 30.0251 22.873 30.0525 22.8752C30.0824 22.8775 30.0999 22.8958 30.1049 22.9209C30.1074 22.9415 30.1074 22.9598 30.1074 22.9804C30.1074 23.0375 30.1074 23.0946 30.1074 23.1517Z"
        fill="white" />
    <path
        d="M71.3574 30.0267C71.3599 30.2073 71.3748 30.3878 71.4072 30.566C71.4097 30.5729 71.4097 30.5797 71.4122 30.5866C71.4371 30.71 71.5069 30.7991 71.6265 30.8608C71.7063 30.9019 71.7885 30.9385 71.8808 30.9522C72.0203 30.9751 72.1624 31.0002 72.302 31.0253C72.3418 31.0322 72.3693 31.055 72.3742 31.087C72.3792 31.1167 72.3593 31.1464 72.3244 31.1624C72.3045 31.1693 72.282 31.1739 72.2621 31.1807C72.1449 31.2081 72.0278 31.2401 71.9181 31.2904C71.7412 31.3704 71.6116 31.4938 71.5368 31.6606C71.4496 31.8525 71.3898 32.0514 71.3599 32.257C71.3524 32.3164 71.3424 32.3758 71.3349 32.4353C71.3299 32.4741 71.3075 32.497 71.2726 32.4992C71.2377 32.5038 71.2103 32.4878 71.1929 32.4535C71.1854 32.4375 71.1804 32.4215 71.1754 32.4055C71.1206 32.2387 71.0433 32.0811 70.9461 31.9302C70.9237 31.8983 70.9013 31.864 70.8738 31.8366C70.7492 31.7154 70.6146 31.6035 70.4601 31.5144C70.333 31.4412 70.1934 31.4001 70.0489 31.3704C69.9317 31.3475 69.8146 31.327 69.6974 31.3064C69.6526 31.2996 69.6277 31.2767 69.6252 31.2447C69.6227 31.2104 69.6476 31.183 69.6925 31.1739C69.7049 31.1716 69.7199 31.1693 69.7348 31.1693C69.8046 31.1762 69.8694 31.1579 69.9342 31.1487C70.0663 31.1282 70.1934 31.0916 70.3205 31.055C70.3853 31.0368 70.4476 31.0139 70.5125 30.9933C70.7218 30.9248 70.8489 30.7854 70.9287 30.6026C70.9486 30.5546 70.9636 30.5043 70.986 30.4586C71.0184 30.3901 71.0533 30.3215 71.0857 30.253C71.1056 30.2141 71.1281 30.173 71.1405 30.1319C71.1704 30.0336 71.1978 29.9353 71.2278 29.8348C71.2327 29.8188 71.2402 29.8028 71.2477 29.7845C71.2577 29.7617 71.2751 29.748 71.3025 29.7502C71.3324 29.7525 71.3499 29.7708 71.3549 29.7959C71.3574 29.8165 71.3574 29.8348 71.3574 29.8554C71.3574 29.9125 71.3574 29.9696 71.3574 30.0267Z"
        fill="white" />

</svg>